<svg width="210" height="70" viewBox="0 0 210 70" fill="none" xmlns="http://www.w3.org/2000/svg">
<path d="M28.3384 53.3223C28.9491 53.3268 29.4982 53.4476 29.9859 53.6846C30.4735 53.917 30.8563 54.2406 31.1343 54.6553C31.4123 55.07 31.5513 55.5417 31.5513 56.0703C31.5513 56.599 31.4123 57.0706 31.1343 57.4854C30.8563 57.9001 30.4735 58.2236 29.9859 58.4561C29.4982 58.6885 28.9491 58.8047 28.3384 58.8047C27.7232 58.8047 27.1695 58.6885 26.6773 58.4561C26.1896 58.2236 25.8068 57.9001 25.5288 57.4854C25.2508 57.0706 25.1118 56.599 25.1118 56.0703C25.1118 55.5417 25.2508 55.07 25.5288 54.6553C25.8068 54.2406 26.1896 53.917 26.6773 53.6846C27.1695 53.4476 27.7232 53.3268 28.3384 53.3223ZM26.3833 56.0703C26.3833 56.403 26.4654 56.6969 26.6294 56.9521C26.798 57.2028 27.0305 57.3988 27.3267 57.54C27.6275 57.6813 27.9647 57.752 28.3384 57.752C28.7121 57.752 29.0471 57.6813 29.3433 57.54C29.6395 57.3988 29.8719 57.2028 30.0406 56.9521C30.2092 56.6969 30.2935 56.403 30.2935 56.0703C30.2935 55.7422 30.2092 55.4528 30.0406 55.2021C29.8719 54.9469 29.6372 54.751 29.3364 54.6143C29.0402 54.4775 28.7075 54.4115 28.3384 54.416C27.9647 54.4115 27.6275 54.4775 27.3267 54.6143C27.0305 54.751 26.798 54.9469 26.6294 55.2021C26.4654 55.4528 26.3833 55.7422 26.3833 56.0703ZM26.9712 59.707H35.0239V62.7969H28.27V63.9727H35.4341V65.0117H27.0122V61.8262H33.7388V60.7461H26.9712V59.707ZM33.7251 52.9121H35.0239V59.1465H33.7251V52.9121ZM41.091 54.7578C41.0864 55.2272 41.2049 55.6784 41.4464 56.1113C41.688 56.5443 42.0366 56.9294 42.4923 57.2666C42.9481 57.5993 43.4836 57.8522 44.0988 58.0254L43.4836 59.0371C42.7863 58.8366 42.1779 58.529 41.6584 58.1143C41.1434 57.6995 40.7446 57.2096 40.4621 56.6445C40.1886 57.2826 39.7808 57.8363 39.2384 58.3057C38.7007 58.7705 38.0604 59.1146 37.3175 59.3379L36.6886 58.3262C37.3175 58.1348 37.8644 57.859 38.3293 57.499C38.7941 57.139 39.1519 56.7243 39.4025 56.2549C39.6532 55.7809 39.7785 55.2865 39.7785 54.7715V54.6074H37.0988V53.5684H43.7297V54.6074H41.091V54.7578ZM38.5343 59.748H46.4504V62.7969H39.8332V64.0273H46.8742V65.0391H38.5617V61.8535H45.1652V60.7598H38.5343V59.748ZM45.1515 52.9121H46.4504V55.4961H48.2277V56.5625H46.4504V59.2148H45.1515V52.9121ZM58.9842 65.1895H57.699V58.5996H55.4568V57.5195H57.699V52.9121H58.9842V65.1895ZM49.2088 54.0195H54.7322V58.3945H50.535V61.1836C51.6196 61.1745 52.5516 61.1449 53.3309 61.0947C54.1147 61.0446 54.9054 60.9466 55.7029 60.8008L55.8123 61.8672C54.9464 62.0176 54.0874 62.1224 53.2352 62.1816C52.3875 62.2363 51.3781 62.2682 50.2068 62.2773H49.2361V57.3418H53.4744V55.0723H49.2088V54.0195ZM64.7368 53.7871C65.3748 53.7871 65.9467 53.9102 66.4526 54.1562C66.9584 54.3978 67.3549 54.7419 67.642 55.1885C67.9291 55.6305 68.0727 56.1341 68.0727 56.6992C68.0727 57.2643 67.9291 57.7702 67.642 58.2168C67.3549 58.6589 66.9584 59.0052 66.4526 59.2559C65.9467 59.502 65.3748 59.625 64.7368 59.625C64.0987 59.625 63.5245 59.502 63.0141 59.2559C62.5082 59.0052 62.1118 58.6589 61.8247 58.2168C61.5421 57.7702 61.4008 57.2643 61.4008 56.6992C61.4008 56.1341 61.5421 55.6305 61.8247 55.1885C62.1118 54.7464 62.5082 54.4023 63.0141 54.1562C63.5245 53.9102 64.0987 53.7871 64.7368 53.7871ZM60.8129 61.4707C62.3533 61.4707 63.7752 61.4456 65.0786 61.3955C66.3819 61.3454 67.6261 61.2337 68.811 61.0605L68.9067 62.0039C67.6853 62.2409 66.4435 62.3913 65.1811 62.4551C63.9233 62.5189 62.5219 62.5508 60.977 62.5508L60.8129 61.4707ZM62.686 56.6992C62.6814 57.0547 62.7657 57.3691 62.9389 57.6426C63.1166 57.9115 63.3605 58.1211 63.6704 58.2715C63.9848 58.4173 64.3403 58.4902 64.7368 58.4902C65.1332 58.4902 65.4864 58.4173 65.7963 58.2715C66.1108 58.1211 66.3569 57.9115 66.5346 57.6426C66.7123 57.3691 66.8012 57.0547 66.8012 56.6992C66.8012 56.3483 66.7123 56.0384 66.5346 55.7695C66.3569 55.4961 66.1108 55.2842 65.7963 55.1338C65.4819 54.9834 65.1287 54.9082 64.7368 54.9082C64.3403 54.9082 63.9848 54.9834 63.6704 55.1338C63.3605 55.2842 63.1166 55.4961 62.9389 55.7695C62.7657 56.0384 62.6814 56.3483 62.686 56.6992ZM69.5766 52.9121H70.8754V65.1895H69.5766V52.9121ZM87.1794 61.334H82.2029V65.1621H80.9177V61.334H75.9685V60.2676H87.1794V61.334ZM77.445 53.459H85.7986V54.498H78.7165V55.7559H85.5251V56.7676H78.7165V58.0938H85.9353V59.1328H77.445V53.459ZM97.7582 58.4492H89.4457V53.6094H97.6078V54.6621H90.7582V57.4238H97.7582V58.4492ZM87.9281 59.9395H99.139V60.9922H94.1351V65.1348H92.8636V60.9922H87.9281V59.9395ZM110.073 65.1895H108.774V52.9121H110.073V65.1895ZM100.585 54.0195H106.327V58.4902H101.925V61.1699C102.987 61.1654 103.969 61.1312 104.871 61.0674C105.778 61.0036 106.719 60.8919 107.694 60.7324L107.817 61.7988C106.801 61.9674 105.814 62.0837 104.857 62.1475C103.9 62.2113 102.827 62.2454 101.638 62.25H100.599V57.4512H105.001V55.0723H100.585V54.0195ZM118.082 54.6484C118.082 55.2956 118.289 55.9245 118.704 56.5352C119.118 57.1458 119.67 57.6676 120.358 58.1006C121.051 58.529 121.787 58.8138 122.566 58.9551L121.964 60.0352C121.308 59.8939 120.682 59.6615 120.085 59.3379C119.488 59.0143 118.957 58.6201 118.492 58.1553C118.032 57.6859 117.672 57.1686 117.412 56.6035C117.147 57.1641 116.783 57.679 116.318 58.1484C115.853 58.6133 115.322 59.0075 114.725 59.3311C114.128 59.6546 113.502 59.8893 112.845 60.0352L112.271 58.9551C113.041 58.8092 113.766 58.5221 114.445 58.0938C115.129 57.6608 115.678 57.1413 116.092 56.5352C116.507 55.9245 116.714 55.2956 116.714 54.6484V53.7188H118.082V54.6484ZM111.861 62.4688H123.072V63.5488H111.861V62.4688ZM133.76 60.4727H125.229V53.9238H133.637V54.9766H126.541V56.6309H133.377V57.6562H126.541V59.4336H133.76V60.4727ZM123.821 62.5508H135.032V63.6172H123.821V62.5508ZM146.977 59.5293H135.767V58.5312H146.977V59.5293ZM137.093 60.3906H145.597V63.084H138.405V64.0957H145.979V65.0117H137.106V62.2227H144.311V61.3203H137.093V60.3906ZM137.175 53.2266H145.569V55.8789H138.487V56.8086H145.774V57.7246H137.202V55.0176H144.27V54.1426H137.175V53.2266ZM160.821 65.0117H152.358V61.4707H155.953V60.4863H151.018V59.4473H162.188V60.4863H157.252V61.4707H160.821V65.0117ZM151.592 53.8828H155.953V52.7617H157.252V53.8828H161.559V54.8809H151.592V53.8828ZM152.576 57.0547C152.572 56.4896 152.916 56.0612 153.609 55.7695C154.301 55.4733 155.297 55.3229 156.596 55.3184C157.899 55.3229 158.895 55.4733 159.583 55.7695C160.276 56.0612 160.62 56.4896 160.615 57.0547C160.62 57.6335 160.276 58.0732 159.583 58.374C158.89 58.6702 157.895 58.8184 156.596 58.8184C155.302 58.8184 154.306 58.6702 153.609 58.374C152.916 58.0732 152.572 57.6335 152.576 57.0547ZM159.563 64.0137V62.4688H153.643V64.0137H159.563ZM153.957 57.0547C153.953 57.3327 154.171 57.5446 154.613 57.6904C155.06 57.8317 155.703 57.9023 156.541 57.9023C157.425 57.9023 158.095 57.8317 158.551 57.6904C159.007 57.5492 159.235 57.3372 159.235 57.0547C159.235 56.7812 159.011 56.5739 158.565 56.4326C158.118 56.2913 157.462 56.2161 156.596 56.207C155.735 56.2161 155.078 56.2913 154.627 56.4326C154.176 56.5739 153.953 56.7812 153.957 57.0547ZM173.122 65.1621H171.823V52.9121H173.122V65.1621ZM163.155 61.8125C163.775 61.5345 164.324 61.1357 164.803 60.6162C165.281 60.0967 165.653 59.5088 165.917 58.8525C166.181 58.1963 166.313 57.5286 166.313 56.8496V56.043H163.524V55.0039H166.3V53.1582H167.585V55.0039H170.333V56.043H167.585V56.8496C167.585 57.4967 167.719 58.137 167.988 58.7705C168.257 59.3994 168.633 59.9645 169.116 60.4658C169.604 60.9626 170.16 61.3431 170.784 61.6074L170.073 62.6055C169.371 62.3001 168.749 61.8467 168.207 61.2451C167.669 60.639 167.257 59.9463 166.97 59.167C166.692 59.9964 166.281 60.7324 165.739 61.375C165.201 62.013 164.582 62.4915 163.88 62.8105L163.155 61.8125ZM184.48 57.6562H186.449V58.7227H184.48V65.1895H183.181V52.9121H184.48V57.6562ZM175.457 54.0879H181.185V55.1406H176.755V61.0605C177.84 61.056 178.792 61.0241 179.613 60.9648C180.433 60.9056 181.263 60.8008 182.101 60.6504L182.265 61.7441C181.399 61.8991 180.549 62.0039 179.715 62.0586C178.886 62.1133 177.899 62.1406 176.755 62.1406H176.441H175.457V54.0879Z" fill="#242931"/>
<path d="M35.8212 10.2812C27.9094 10.2812 22.1641 16.0819 22.1641 24.0769C22.1641 32.0718 27.6844 37.9175 35.5894 37.9175C43.4943 37.9175 49.4784 32.0961 49.4784 24.0769C49.4784 16.0577 43.7331 10.2812 35.8212 10.2812ZM35.5894 32.0095C31.5019 32.0095 28.8611 28.8946 28.8611 24.0769C28.8611 18.2554 32.561 16.1927 35.7278 16.1927C39.2165 16.1927 42.7364 18.6292 42.7364 24.0769C42.7364 29.5245 39.1473 32.0095 35.5894 32.0095Z" fill="#43A0F5"/>
<path d="M193.908 32.4582V7.33468C193.908 4.89812 191.586 2.92188 189.153 2.92188C187.997 2.92188 187.059 3.85981 187.059 5.01925V34.0814C187.059 35.3516 187.817 36.7603 188.893 37.4456C189.336 37.7259 189.907 37.9716 190.443 37.9578C190.329 37.9612 192.385 37.9682 192.908 37.9578C193.392 37.9474 194.867 37.9959 195.396 36.5042C195.753 35.5005 195.607 34.4449 194.984 33.5381C194.704 33.1297 194.33 32.7663 193.908 32.4617V32.4582Z" fill="#43A0F5"/>
<path d="M205.322 32.4582V7.33468C205.322 4.89812 203 2.92188 200.567 2.92188C199.411 2.92188 198.473 3.85981 198.473 5.01925V34.0814C198.473 35.3516 199.231 36.7603 200.307 37.4456C200.75 37.7259 201.321 37.9716 201.858 37.9578C201.743 37.9612 203.799 37.9682 204.322 37.9578C204.806 37.9474 206.281 37.9959 206.81 36.5042C207.167 35.5005 207.021 34.4449 206.398 33.5381C206.118 33.1297 205.744 32.7663 205.322 32.4617V32.4582Z" fill="#43A0F5"/>
<path d="M182.516 31.9719V14.7083C182.516 12.4933 180.72 10.7005 178.508 10.7005C177.048 10.7005 175.864 11.8841 175.864 13.3447C174.355 11.943 171.721 10.2852 167.699 10.2852C160.345 10.2852 155.008 16.0512 155.008 23.9943C155.008 31.9373 160.424 37.9353 167.606 37.9353C170.78 37.9353 173.749 36.7897 175.864 34.803C175.864 36.3016 177.079 37.5165 178.577 37.5165H179.872C179.993 37.5165 180.959 37.4749 181.453 37.4646C181.945 37.4542 183.44 37.5511 183.98 36.0386C184.343 35.0176 184.195 33.9516 183.561 33.031C183.284 32.6295 182.924 32.2765 182.516 31.9754V31.9719ZM168.807 32.0204C164.225 32.0204 161.75 27.8844 161.75 23.9943C161.75 18.6366 165.408 16.2 168.807 16.2C172.206 16.2 175.86 18.91 175.86 24.0877C175.86 29.2654 172.309 32.0238 168.807 32.0238V32.0204Z" fill="#43A0F5"/>
<path d="M16.9998 31.9582H16.633C14.7398 31.9582 14.5425 31.4044 14.5425 30.1411V16.4874H18.6542C19.1907 16.4874 19.6925 16.2797 20.0732 15.899C20.4505 15.5218 20.6616 15.0165 20.6616 14.48V14.4073C20.6616 13.3136 20.2359 12.2823 19.4641 11.5104C18.6923 10.7386 17.6678 10.3129 16.5741 10.3129H14.5425V7.8037C14.5425 5.1214 12.0125 2.9375 9.33021 2.9375C8.20191 2.9375 7.28474 3.85467 7.28474 4.98296V10.3095H5.087C3.93448 10.3095 3 11.2474 3 12.3965C3 14.6496 4.83088 16.4805 7.084 16.4805H7.28474V30.1342C7.28474 35.3188 10.0051 37.9492 15.3731 37.9492H19.0141C20.1147 37.9492 21.0077 37.0562 21.0077 35.9556C21.0077 33.7475 19.2114 31.9478 16.9998 31.9478V31.9582Z" fill="#43A0F5"/>
<path d="M78.4237 6.8835C78.4237 4.18737 76.2398 2 73.5437 2H73.471C72.54 2 71.7855 2.7545 71.7855 3.68552V13.3072C69.9027 11.6666 67.3207 10.5868 64.6938 10.3618C64.3546 10.3341 64.0155 10.3134 63.6763 10.3134C56.3078 10.3134 50.957 16.069 50.957 24.0017C50.957 31.9344 56.4047 37.9219 63.6313 37.9219C63.9878 37.9219 64.3443 37.9012 64.6938 37.8735C66.4105 37.735 68.0233 37.2505 69.4389 36.4925L64.9638 32.0174H64.7388C64.7388 32.0174 64.7077 32.0174 64.6938 32.0174C61.2916 31.9932 57.6956 29.1863 57.6956 24.0052C57.6956 18.824 61.3159 16.2456 64.6938 16.2213C64.7077 16.2213 64.725 16.2213 64.7388 16.2213C67.8503 16.2213 70.9894 18.3672 71.6505 22.4719L78.4202 15.678V6.8835H78.4237Z" fill="#43A0F5"/>
<path d="M93.165 10.2808C88.6034 10.2808 84.9728 12.3609 82.2213 15.2266L71.6478 26.1323L68.6817 23.142C67.0724 21.5326 64.3382 21.7645 62.7288 23.3704C61.9985 24.1007 61.9501 25.3397 62.6803 26.0734L71.859 35.2521L79.7155 26.8522L80.1931 26.3399L87.842 18.6184C89.4375 17.1059 91.2303 16.1957 93.0716 16.1957C96.5637 16.1957 100.087 18.6357 100.087 24.0903C100.087 29.5448 96.4945 32.0333 92.9331 32.0333C88.8387 32.0333 86.1945 28.9149 86.1945 24.0903C86.1945 24.0522 86.1945 24.0176 86.1945 23.9795L80.4873 29.7352C82.422 34.7606 87.0079 37.9517 92.9297 37.9517C100.987 37.9517 106.836 32.1233 106.836 24.0903C106.836 16.0572 101.084 10.2773 93.1615 10.2773L93.165 10.2808Z" fill="#43A0F5"/>
<path d="M145.474 11.1012C145.364 11.0562 145.253 11.0112 145.139 10.9696C144.028 10.5543 142.84 10.3086 141.65 10.3086C139.542 10.3086 137.507 11.1669 135.946 12.6275C135.143 13.2435 134.441 13.9634 133.883 14.7699C133.918 14.7214 133.43 14.1607 133.375 14.095C133.181 13.8596 132.977 13.6346 132.765 13.4201C132.34 12.9909 131.869 12.5998 131.371 12.2537C129.637 11.0562 127.539 10.3086 125.425 10.3086C123.268 10.3086 121.216 11.1912 119.7 12.7278V10.7135H114.799C113.803 10.7135 112.996 11.52 112.996 12.5167V35.7056C112.996 36.9342 113.993 37.9275 115.218 37.9275H115.267C117.717 37.9275 119.7 35.9409 119.7 33.494V22.7025C119.731 18.5804 121.431 16.31 124.501 16.31C127.57 16.31 129.152 18.5424 129.256 22.4429V22.4256C129.259 22.5502 129.27 22.6714 129.27 22.796V35.7056C129.27 36.9342 130.267 37.9275 131.495 37.9275C133.946 37.9275 135.929 35.9409 135.929 33.494V22.796C135.929 22.5468 135.936 22.3045 135.953 22.0691V22.0864C136.143 18.3555 137.822 16.31 140.733 16.31C143.643 16.31 145.294 18.4247 145.474 22.1418V22.1245C145.488 22.3426 145.495 22.5675 145.495 22.796V35.7056C145.495 36.9342 146.492 37.9275 147.717 37.9275C150.167 37.9275 152.151 35.9409 152.151 33.494V21.9965C152.151 19.7953 151.718 17.5664 150.649 15.6247C149.517 13.5723 147.634 11.9872 145.478 11.0977L145.474 11.1012Z" fill="#43A0F5"/>
</svg>
